<?xml version="1.0" encoding="UTF-8"?>
<svg id="Calque_2" data-name="Calque 2" xmlns="http://www.w3.org/2000/svg" viewBox="0 0 71.75 82.27">
  <defs>
    <style>
      .cls-1 {
        stroke-miterlimit: 10;
      }

      .cls-1, .cls-2 {
        fill: none;
        stroke: #1d1d1b;
        stroke-linecap: round;
        stroke-width: 2px;
      }

      .cls-2 {
        stroke-linejoin: round;
      }
    </style>
  </defs>
  <g id="Calque_1-2" data-name="Calque 1">
    <rect class="cls-2" x="25.25" y="1" width="15" height="35" rx="4" ry="4"/>
    <path class="cls-2" d="m21,1.3C7.47-.54.91,9.7,1,18.59c.09,8.79,6.65,19.16,20,17.28"/>
    <polyline class="cls-1" points="45.72 1 45.72 36 55.72 36"/>
    <polyline class="cls-1" points="60.75 1.09 60.75 36.09 70.75 36.09"/>
    <line class="cls-1" x1="2.28" y1="66.27" x2="14.28" y2="66.27"/>
    <path class="cls-2" d="m39.25,45.77c-8.32-.79-12.36,3.6-12.3,7.41.06,3.77,4.09,8.21,12.3,7.4"/>
    <rect class="cls-2" x="42.75" y="53.77" width="15" height="40" rx="4" ry="4" transform="translate(-23.52 124.01) rotate(-90)"/>
    <line class="cls-2" x1="52.25" y1="41.18" x2="52.25" y2="61.18"/>
    <line class="cls-2" x1="46.62" y1="45.78" x2="58.62" y2="45.78"/>
    <line class="cls-2" x1="66.15" y1="49.18" x2="66.15" y2="61.18"/>
    <circle class="cls-2" cx="66.15" cy="44.78" r=".89"/>
    <polyline class="cls-1" points="22.53 41.18 1 41.18 1 81.18 28.2 81.18"/>
  </g>
</svg>