<?xml version="1.0" encoding="UTF-8"?>
<svg id="Calque_2" data-name="Calque 2" xmlns="http://www.w3.org/2000/svg" viewBox="0 0 71.75 82.27">
  <defs>
    <style>
      .cls-1 {
        stroke-miterlimit: 10;
      }

      .cls-1, .cls-2, .cls-3 {
        stroke: #1d1d1b;
        stroke-linecap: round;
        stroke-width: 2px;
      }

      .cls-1, .cls-3 {
        fill: none;
      }

      .cls-2 {
        fill: #1d1d1b;
      }

      .cls-2, .cls-3 {
        stroke-linejoin: round;
      }
    </style>
  </defs>
  <g id="Calque_1-2" data-name="Calque 1">
    <rect class="cls-3" x="21.75" y="1" width="20" height="35" rx="4" ry="4"/>
    <path class="cls-3" d="m18.5,1.3C8.35-.54.93,10.51,1,19.39c.07,8.79,7.49,18.35,17.5,16.47"/>
    <polyline class="cls-1" points="45.72 1 45.72 36 55.72 36"/>
    <polyline class="cls-1" points="60.75 1.09 60.75 36.09 70.75 36.09"/>
    <line class="cls-1" x1="1.28" y1="60.68" x2="13.28" y2="60.68"/>
    <path class="cls-3" d="m34.72,45.83c-6.77-.79-10.05,3.6-10,7.41.05,3.77,3.33,8.21,10,7.4"/>
    <rect class="cls-3" x="37.22" y="47.77" width="15" height="52" rx="4" ry="4" transform="translate(-29.04 118.49) rotate(-90)"/>
    <line class="cls-3" x1="49.25" y1="41.18" x2="49.25" y2="61.18"/>
    <line class="cls-3" x1="43.62" y1="45.78" x2="55.62" y2="45.78"/>
    <line class="cls-3" x1="67.15" y1="49.18" x2="67.15" y2="61.18"/>
    <circle class="cls-2" cx="67.15" cy="44.78" r=".89"/>
    <polyline class="cls-1" points="21 41.18 1 41.18 1 81.18 15.92 81.17"/>
  </g>
</svg>