<svg width="132" height="141" viewBox="0 0 132 141" fill="none" xmlns="http://www.w3.org/2000/svg">
<rect width="132" height="141" rx="17" fill="#437C90"/>
<path d="M55.8798 29.5428C58.5932 14.1667 74.4215 14.7362 79.6223 18.9503C76.3662 19.7704 74.7261 22.7915 74.5 24.5C74.3869 24.9556 73.7699 27.5769 74.8738 31.2513C76 35 78.1525 36.7183 79.6223 37.06C80.6398 37.4017 83.4889 37.8801 86.745 37.06C90.0011 36.2399 92.1718 32.8458 92.8502 31.2513C93.3825 30 93.8214 27.0435 92.8502 23.0507C91.5 17.5 87.3103 14.5084 84.7099 12.7999C83.014 11.4332 76.1626 9.04134 62.3242 10.4081C48.4857 11.7749 39.8615 24 39.5993 33.6431C39.1471 50.2721 38.5139 87.767 39.5993 104.715C40.6847 121.663 55 128.5 62.3242 130H69.4469H76.5697C85.7953 128.907 90.2498 120.091 91.1543 115.649C88.9836 113.189 85.2752 113.713 83.6924 114.282C83.4663 117.244 80.3006 124.533 69.4469 123.85C58.6008 123.167 55.8798 114.054 55.8798 108.815V29.5428Z" fill="white"/>
<path d="M55.8798 29.5428C58.5932 14.1667 74.4215 14.7362 79.6223 18.9503C76.3662 19.7704 74.7261 22.7915 74.5 24.5C74.3869 24.9556 73.7699 27.5769 74.8738 31.2513C76 35 78.1525 36.7183 79.6223 37.06C80.6398 37.4017 83.4889 37.8801 86.745 37.06C90.0011 36.2399 92.1718 32.8458 92.8502 31.2513C93.3825 30 93.8214 27.0435 92.8502 23.0507C91.5 17.5 87.3103 14.5084 84.7099 12.7999C83.014 11.4332 76.1626 9.04134 62.3242 10.4081C48.4857 11.7749 39.8615 24 39.5993 33.6431C39.1471 50.2721 38.5139 87.767 39.5993 104.715C40.6847 121.663 55 128.5 62.3242 130H69.4469H76.5697C85.7953 128.907 90.2498 120.091 91.1543 115.649C88.9836 113.189 85.2752 113.713 83.6924 114.282C83.4663 117.244 80.3006 124.533 69.4469 123.85C58.6008 123.167 55.8798 114.054 55.8798 108.815V29.5428Z" stroke="white"/>
<path d="M55.8798 29.5428C58.5932 14.1667 74.4215 14.7362 79.6223 18.9503C76.3662 19.7704 74.7261 22.7915 74.5 24.5C74.3869 24.9556 73.7699 27.5769 74.8738 31.2513C76 35 78.1525 36.7183 79.6223 37.06C80.6398 37.4017 83.4889 37.8801 86.745 37.06C90.0011 36.2399 92.1718 32.8458 92.8502 31.2513C93.3825 30 93.8214 27.0435 92.8502 23.0507C91.5 17.5 87.3103 14.5084 84.7099 12.7999C83.014 11.4332 76.1626 9.04134 62.3242 10.4081C48.4857 11.7749 39.8615 24 39.5993 33.6431C39.1471 50.2721 38.5139 87.767 39.5993 104.715C40.6847 121.663 55 128.5 62.3242 130H69.4469H76.5697C85.7953 128.907 90.2498 120.091 91.1543 115.649C88.9836 113.189 85.2752 113.713 83.6924 114.282C83.4663 117.244 80.3006 124.533 69.4469 123.85C58.6008 123.167 55.8798 114.054 55.8798 108.815V29.5428Z" stroke="white"/>
</svg>
